<?xml version="1.0" standalone="no"?>
<!DOCTYPE svg PUBLIC "-//W3C//DTD SVG 20010904//EN"
 "http://www.w3.org/TR/2001/REC-SVG-20010904/DTD/svg10.dtd">
<svg version="1.0" xmlns="http://www.w3.org/2000/svg"
 width="540.000000pt" height="540.000000pt" viewBox="0 0 540.000000 540.000000"
 preserveAspectRatio="xMidYMid meet">
<metadata>
Created by potrace 1.11, written by Peter Selinger 2001-2013
</metadata>
<g transform="translate(0.000000,540.000000) scale(0.100000,-0.100000)"
fill="#000000" stroke="none">
<path d="M4380 4450 c0 -5 5 -10 10 -10 6 0 10 5 10 10 0 6 -4 10 -10 10 -5 0
-10 -4 -10 -10z"/>
<path d="M4298 4390 c-14 -15 -34 -30 -44 -32 -11 -2 -35 -27 -54 -57 -24 -37
-36 -48 -40 -38 -3 11 -11 4 -24 -24 -11 -21 -26 -39 -34 -39 -15 0 -72 -56
-72 -71 0 -5 -7 -9 -15 -9 -8 0 -15 -6 -15 -12 0 -8 -3 -9 -8 -3 -4 6 -17 16
-29 23 -21 11 -23 10 -23 -10 0 -13 -7 -32 -15 -42 -13 -17 -15 -17 -21 -3 -8
21 -24 22 -24 2 0 -8 -7 -15 -15 -15 -9 0 -15 9 -15 22 0 16 -3 19 -11 11 -8
-8 -8 -17 -1 -30 6 -10 8 -24 4 -29 -9 -13 -71 -44 -87 -44 -12 0 -79 -29
-121 -54 -12 -6 -34 -26 -49 -44 -15 -18 -35 -32 -46 -32 -10 0 -19 -4 -19
-10 0 -5 18 -10 40 -10 33 0 40 -3 40 -20 0 -11 7 -38 16 -60 17 -43 25 -45
107 -41 21 2 37 -2 37 -8 0 -6 19 -11 43 -11 37 -1 40 -2 25 -14 -20 -15 -23
-26 -7 -26 6 0 17 -7 26 -15 11 -12 27 -14 66 -9 29 4 56 10 62 15 13 13 89
11 103 -3 7 -7 52 -11 119 -12 81 -1 117 -6 142 -18 27 -15 84 -31 113 -33 18
-1 18 -16 0 -35 l-20 -22 21 -32 c19 -28 26 -32 48 -26 30 9 113 5 131 -6 7
-5 31 -9 53 -11 302 -19 321 -20 358 -7 42 15 71 39 63 53 -9 14 18 58 33 53
7 -2 16 0 20 5 3 4 18 16 34 26 15 10 38 35 52 56 l26 38 -21 36 c-11 19 -33
41 -48 49 -15 7 -53 30 -84 51 -31 20 -62 37 -68 37 -5 0 -10 7 -10 15 0 10
-10 15 -30 15 -25 0 -29 4 -27 22 1 16 -5 23 -27 29 -16 5 -32 12 -35 17 -3 4
-21 18 -38 31 -36 25 -43 48 -15 53 9 2 -10 4 -43 5 -215 2 -255 8 -262 34 -5
18 -45 26 -103 21 -27 -3 -60 21 -60 43 0 11 -9 38 -20 59 -19 39 -19 65 2
134 5 18 14 29 20 26 15 -10 -8 30 -26 46 -13 10 -16 10 -16 0 0 -10 -5 -9
-18 3 -16 14 -19 14 -44 -13z m-158 -380 c0 -5 -2 -10 -4 -10 -3 0 -8 5 -11
10 -3 6 -1 10 4 10 6 0 11 -4 11 -10z"/>
<path d="M2545 4136 c-18 -14 -18 -15 -2 -16 10 0 17 -8 17 -20 0 -23 -10 -26
-28 -8 -9 9 -12 5 -12 -20 0 -25 4 -32 20 -32 11 0 20 -6 20 -12 1 -13 49 70
50 85 0 4 -5 7 -11 7 -7 0 -17 7 -23 15 -10 14 -13 14 -31 1z"/>
<path d="M2626 4141 c-4 -7 -5 -15 -2 -18 9 -9 19 4 14 18 -4 11 -6 11 -12 0z"/>
<path d="M5108 3393 c-29 -7 -21 -18 30 -36 33 -12 78 -17 155 -17 101 0 107
1 107 20 0 33 -19 36 -189 27 -59 -4 -89 -2 -80 4 15 9 6 10 -23 2z"/>
<path d="M735 3285 c-16 -11 -56 -12 -220 -6 -212 9 -281 4 -425 -30 l-90 -21
2 -445 3 -446 30 -2 c17 -1 77 -4 133 -5 l104 -4 -4 -28 -5 -28 93 0 c51 0 99
-3 108 -6 9 -3 16 -1 16 5 0 6 -8 11 -17 11 -14 1 -12 4 7 15 14 7 27 10 30 7
5 -7 85 -10 424 -17 159 -2 206 -1 197 8 -8 8 -91 13 -274 15 -236 3 -263 5
-277 21 -9 11 -28 17 -50 16 -19 0 -39 4 -43 10 -5 6 -7 -2 -4 -17 l4 -26 -29
29 c-16 16 -27 33 -23 38 3 6 -11 13 -32 16 -83 14 -94 17 -108 37 -8 12 -12
25 -10 29 3 4 89 8 191 8 199 1 229 5 238 27 3 8 19 14 37 14 18 0 29 3 25 7
-9 9 -13 9 -84 11 -36 1 -51 6 -46 13 4 7 20 8 41 4 41 -7 73 1 73 21 0 10
-14 14 -52 15 -29 1 -62 3 -73 4 -11 1 -46 2 -77 3 -32 1 -58 6 -58 12 0 6 84
10 218 10 236 0 316 8 335 33 15 20 77 35 77 18 0 -6 -11 -11 -25 -11 -27 0
-44 -25 -29 -40 5 -5 52 -11 104 -14 227 -13 257 -16 280 -25 18 -7 20 -10 8
-10 -30 -1 -20 -18 13 -25 45 -9 49 -8 49 10 0 10 7 14 23 12 37 -5 28 -40
-13 -50 -63 -16 -67 -18 -47 -29 9 -6 26 -7 37 -4 29 9 80 -4 80 -21 0 -11 15
-14 68 -13 37 1 55 4 40 6 -16 2 -28 7 -28 11 0 6 77 7 148 3 6 -1 12 -8 12
-16 0 -11 11 -15 43 -15 36 0 49 -6 77 -35 30 -31 81 -51 65 -25 -3 6 1 10 9
10 8 0 19 -8 25 -17 5 -10 21 -17 37 -18 15 0 29 -6 31 -12 3 -8 -5 -13 -21
-13 -14 0 -26 -4 -26 -10 0 -14 26 -13 50 2 15 10 22 9 39 -6 11 -10 18 -23
14 -29 -4 -6 4 -7 22 -3 24 6 27 5 22 -13 -3 -12 1 -22 10 -25 27 -11 38 -5
19 9 -25 19 -21 21 36 27 48 6 50 -7 3 -27 -20 -8 -20 -8 0 -13 10 -2 21 1 23
7 4 12 60 15 86 5 23 -9 20 -27 -4 -19 -10 3 -38 1 -62 -6 -41 -11 -137 -14
-146 -4 -3 2 1 11 8 20 7 8 9 15 4 15 -15 0 -29 -14 -29 -30 0 -15 24 -22 136
-39 31 -5 65 -13 75 -19 37 -21 -11 -25 -88 -7 -40 9 -85 17 -99 19 -14 1 -31
6 -38 11 -8 4 -17 2 -22 -6 -6 -11 -12 -9 -27 9 -18 21 -28 22 -146 22 -69 0
-126 -4 -126 -8 0 -5 37 -20 83 -34 45 -14 138 -46 207 -71 69 -25 166 -58
215 -73 50 -15 94 -31 99 -35 16 -14 52 -10 66 7 8 8 47 38 87 66 41 28 70 54
66 57 -5 3 -8 36 -8 73 0 36 3 61 7 55 4 -7 8 -24 8 -38 0 -15 3 -40 6 -57 l6
-30 42 16 c27 10 77 16 151 17 118 1 165 -10 223 -52 17 -13 32 -22 32 -19 0
2 27 -4 60 -14 34 -10 76 -17 94 -14 31 4 126 -28 126 -43 0 -3 -6 -3 -14 0
-9 3 -21 -4 -30 -19 -9 -13 -24 -24 -34 -23 -10 0 -12 3 -4 6 17 7 15 21 -5
26 -11 3 -6 5 12 6 47 3 0 17 -50 15 -69 -2 -66 0 -50 -41 8 -21 21 -64 30
-95 l16 -58 50 0 c37 0 49 -4 49 -15 0 -8 -4 -15 -9 -15 -5 0 -16 -3 -25 -6
-11 -4 -16 -1 -16 10 0 22 -13 20 -27 -4 -11 -16 -9 -23 12 -46 13 -14 29 -23
34 -19 15 9 14 -8 -1 -23 -6 -6 -8 -15 -4 -19 4 -5 13 0 21 10 11 16 13 16 19
1 6 -14 8 -14 24 3 9 10 13 13 8 6 -6 -9 -3 -13 8 -13 9 0 16 -6 16 -12 1 -8
6 -6 14 5 21 27 32 20 28 -18 -3 -22 -11 -36 -22 -40 -23 -7 -55 -43 -47 -52
4 -4 14 2 22 13 8 10 15 14 15 7 0 -6 -5 -15 -10 -18 -7 -4 -6 -13 1 -27 9
-16 8 -22 -2 -29 -9 -5 -16 -4 -18 4 -2 7 -11 17 -18 22 -11 8 -12 17 -4 38
14 35 14 40 0 32 -14 -9 -33 -56 -30 -75 2 -11 -2 -10 -18 4 -12 11 -23 17
-26 14 -2 -2 3 -43 13 -91 l17 -86 145 -62 c367 -156 900 -418 1285 -631 87
-49 576 -325 608 -345 4 -2 7 127 7 287 0 256 -2 291 -15 286 -8 -3 -15 -1
-15 5 0 5 7 12 15 15 28 11 16 26 -15 19 -19 -4 -30 -3 -30 4 0 6 5 11 10 11
6 0 10 7 10 15 0 8 7 15 16 15 11 0 15 6 11 20 -3 11 -1 23 4 26 10 6 12 216
3 252 -4 12 -10 22 -15 22 -5 0 -6 -7 -3 -15 5 -11 -1 -15 -24 -15 -17 0 -34
5 -37 10 -3 6 3 10 14 10 11 0 27 10 35 22 22 31 20 41 -5 27 -18 -9 -20 -8
-15 8 5 15 -1 18 -41 21 -25 2 -61 9 -79 17 -30 12 -32 12 -27 -3 7 -17 42
-47 56 -47 9 0 10 -12 3 -28 -5 -9 -7 -9 -12 1 -3 6 -12 12 -20 12 -9 0 -12 5
-8 12 5 8 2 9 -9 5 -11 -4 -17 -1 -17 8 0 8 -6 14 -12 12 -7 -1 -12 6 -12 15
1 12 -15 23 -59 37 -75 26 -81 26 -74 2 4 -17 2 -18 -14 -8 -10 6 -19 17 -19
24 0 17 -10 21 -71 28 -48 6 -52 5 -36 -8 21 -18 22 -27 2 -27 -9 0 -18 7 -21
15 -4 8 -17 15 -30 15 -13 0 -24 5 -24 10 0 6 -8 5 -19 -2 -26 -16 -54 6 -46
36 3 12 2 15 -1 9 -8 -17 -38 -17 -31 0 3 8 -1 14 -8 14 -11 0 -11 -5 -4 -20
14 -24 11 -26 -30 -15 -32 9 -33 10 -15 29 9 10 14 22 10 27 -4 4 -13 -1 -20
-11 -17 -22 -46 -22 -46 -1 0 14 -3 14 -15 4 -13 -10 -19 -10 -33 2 -9 9 -29
18 -45 22 -15 3 -27 12 -27 19 0 21 -48 17 -53 -4 -6 -23 -29 -25 -25 -3 4 23
-51 42 -63 23 -7 -11 -9 -10 -9 4 0 11 -5 15 -11 11 -6 -4 -9 -19 -5 -36 3
-18 2 -27 -4 -23 -6 3 -10 24 -10 46 0 21 -4 39 -10 39 -5 0 -10 -11 -10 -25
0 -14 -4 -25 -10 -25 -5 0 -10 9 -10 19 0 10 -7 22 -16 25 -22 9 -24 8 -24 -9
0 -8 -5 -15 -11 -15 -6 0 -9 6 -6 13 3 8 1 20 -4 28 -7 11 -10 9 -15 -8 -4
-13 -10 -21 -14 -18 -5 3 -20 1 -34 -5 -22 -8 -26 -7 -26 8 -1 16 -2 16 -14
-1 -11 -14 -15 -15 -19 -4 -7 18 -55 28 -61 13 -2 -6 -5 4 -5 22 -1 32 -14 42
-27 20 -5 -8 -11 -6 -20 7 -9 12 -35 20 -81 27 -125 16 -143 20 -149 29 -3 6
7 7 23 5 15 -3 58 -7 94 -10 56 -4 70 -2 84 14 12 13 13 20 4 26 -8 4 -10 3
-5 -4 5 -8 -21 -10 -91 -5 -117 6 -149 23 -44 23 45 0 70 4 66 10 -3 5 -15 10
-26 10 -12 0 -19 5 -16 13 4 12 15 12 90 1 34 -5 50 7 29 20 -14 8 -112 15
-112 7 0 -17 -60 -41 -86 -35 -20 5 -25 4 -19 -6 6 -9 1 -10 -16 -5 -43 12
-89 36 -89 45 0 9 14 14 33 11 4 0 7 3 7 9 0 5 -16 9 -35 8 -20 -1 -41 4 -48
11 -7 7 -7 12 -2 11 26 -5 39 0 28 11 -9 9 -21 6 -47 -9 -24 -14 -38 -17 -42
-10 -4 7 -29 9 -65 5 -65 -6 -139 1 -139 13 0 17 97 33 106 18 3 -5 22 -8 42
-7 20 2 47 -3 60 -10 32 -17 27 -6 -15 34 -21 20 -48 35 -61 35 -14 0 -22 5
-20 12 7 20 71 15 87 -5 8 -12 22 -17 37 -14 13 2 25 -1 28 -8 2 -7 17 -10 36
-7 34 5 60 -16 37 -30 -6 -4 0 -9 16 -13 18 -5 31 -2 42 9 13 13 14 17 3 20
-7 3 -20 7 -28 9 -8 3 13 6 46 6 46 1 63 -3 68 -14 3 -8 13 -15 21 -15 9 0 13
-4 10 -10 -9 -15 2 -12 19 6 15 14 17 14 32 0 8 -9 23 -16 32 -16 10 0 28 -7
40 -16 13 -9 26 -14 29 -10 3 3 20 -1 37 -8 26 -11 78 -24 121 -31 59 -9 95
-19 95 -26 0 -4 17 -11 38 -15 20 -4 51 -13 67 -20 26 -11 27 -13 8 -14 -12 0
-25 -5 -28 -10 -5 -8 -11 -7 -21 1 -9 7 -14 8 -14 1 0 -6 6 -13 12 -15 7 -3 1
-6 -14 -6 -36 -1 -44 -17 -12 -25 29 -8 44 -1 44 19 0 20 94 14 120 -8 27 -22
26 -40 -1 -32 -15 5 -19 4 -15 -4 5 -7 -1 -11 -15 -11 -16 0 -19 3 -11 13 8 9
-1 12 -39 14 -40 2 -51 -2 -64 -20 -8 -12 -17 -20 -19 -17 -3 3 -8 2 -12 -2
-4 -5 -3 -8 2 -9 29 -2 68 -10 139 -29 44 -12 125 -32 180 -45 55 -12 114 -27
130 -33 17 -6 82 -22 145 -37 63 -15 135 -33 160 -40 61 -19 256 -67 283 -70
12 -2 35 -8 50 -14 43 -17 47 -14 47 33 l0 43 -56 2 c-31 0 -59 3 -64 6 -4 2
-36 7 -70 9 -35 3 -67 11 -71 17 -10 16 -117 34 -226 38 -19 1 -43 11 -58 25
-20 19 -41 25 -102 31 -47 4 -82 13 -92 22 -10 11 -16 12 -19 4 -4 -13 -58
-15 -66 -2 -4 5 -25 12 -49 16 -96 14 -100 16 -81 29 14 10 22 10 43 0 21 -11
35 -11 68 -1 62 18 61 25 -6 33 -78 8 -99 29 -39 37 24 3 45 1 49 -4 3 -5 18
-13 32 -17 15 -4 26 -11 24 -16 -1 -5 9 -13 23 -18 14 -5 25 -9 25 -9 0 0 26
-7 59 -14 39 -9 66 -11 83 -4 33 12 106 12 98 -1 -3 -5 -16 -10 -27 -10 -12 0
-19 -3 -15 -6 5 -5 62 -22 97 -28 8 -1 31 -5 50 -9 19 -4 85 -9 145 -12 61 -2
128 -9 150 -16 22 -7 43 -12 48 -11 4 1 7 -2 7 -7 0 -5 9 -7 20 -4 11 3 20 11
20 18 0 14 -13 20 -65 30 -93 18 -143 38 -138 53 4 9 0 12 -12 10 -10 -2 -20
3 -22 10 -6 16 13 15 40 -2 29 -19 146 -58 159 -54 6 2 3 12 -6 21 -17 16 -16
18 13 23 l31 6 0 567 0 566 -650 2 c-358 1 -648 -2 -645 -7 3 -4 -47 -7 -111
-7 -64 1 -121 -1 -127 -5 -7 -4 40 -9 103 -10 l115 -2 -120 -6 c-135 -6 -770
-2 -763 5 2 2 143 6 312 8 212 3 311 8 319 16 8 8 3 11 -20 11 -23 0 -33 6
-38 20 -4 13 -15 20 -30 20 -35 0 -73 17 -116 51 -27 21 -56 33 -92 38 -28 4
-63 14 -77 21 -14 8 -56 15 -95 17 -97 3 -282 30 -330 48 -22 8 -62 14 -90 13
-52 -1 -164 25 -261 62 -32 11 -102 25 -158 30 -55 5 -128 14 -161 19 -57 10
-160 26 -325 52 -41 6 -147 13 -235 14 -88 2 -189 7 -225 10 -36 4 -76 2 -90
-3 -19 -7 -38 -5 -75 10 -64 25 -207 34 -275 18 -54 -13 -168 -3 -281 26 -70
17 -98 17 -124 -1z m3456 -493 c-13 -2 -27 0 -32 5 -6 6 3 7 23 4 28 -4 29 -6
9 -9z m-1012 -6 c-10 -8 -89 -13 -89 -5 0 5 21 9 47 9 25 0 44 -2 42 -4z
m-2001 -73 c-10 -2 -26 -2 -35 0 -10 3 -2 5 17 5 19 0 27 -2 18 -5z m132 -29
c0 -2 -9 -4 -21 -4 -11 0 -18 4 -14 10 5 8 35 3 35 -6z m-110 -14 c0 -5 -15
-9 -32 -9 l-33 1 30 8 c17 4 31 8 33 9 1 0 2 -3 2 -9z m-183 -31 c-14 -8 -22
-8 -30 0 -8 8 -3 11 19 11 25 -1 27 -2 11 -11z m126 -6 c47 -7 30 -23 -25 -23
-36 0 -54 11 -41 24 8 8 18 7 66 -1z m587 -112 c0 -12 -34 -17 -87 -12 -67 5
-50 21 22 21 36 0 65 -4 65 -9z m95 -1 c15 -7 10 -9 -22 -9 -24 -1 -43 4 -43
9 0 12 37 12 65 0z m68 3 c-7 -2 -19 -2 -25 0 -7 3 -2 5 12 5 14 0 19 -2 13
-5z m998 -19 c27 -9 49 -20 49 -25 0 -14 -28 -11 -34 4 -5 9 -7 9 -12 0 -4 -9
-26 -11 -82 -7 -42 3 -74 3 -70 -2 9 -8 -21 -33 -39 -34 -7 0 -10 7 -7 15 4 8
12 15 19 15 6 0 20 9 31 21 11 13 27 19 41 16 12 -2 28 0 35 4 17 11 11 12 69
-7z m-1001 -54 c0 -5 -6 -10 -14 -10 -8 0 -18 5 -21 10 -3 6 3 10 14 10 12 0
21 -4 21 -10z m1090 6 c0 -3 -4 -8 -10 -11 -5 -3 -10 -1 -10 4 0 6 5 11 10 11
6 0 10 -2 10 -4z m-142 -33 c37 -23 19 -26 -37 -7 -31 12 -46 21 -38 26 14 9
43 2 75 -19z m143 -14 c-24 -22 -37 -20 -28 6 4 8 16 15 29 15 l22 0 -23 -21z
m-247 -8 c7 -10 -30 -19 -56 -13 -10 2 -18 8 -18 13 0 12 67 12 74 0z m286
-10 c0 -5 3 -18 6 -28 6 -16 5 -16 -9 2 -19 23 -21 35 -7 35 6 0 10 -4 10 -9z
m-2620 -23 c0 -8 -13 -13 -33 -12 -51 2 -55 6 -12 14 22 4 41 8 43 9 1 0 2 -5
2 -11z m2400 8 c0 -2 -7 -7 -16 -10 -8 -3 -12 -2 -9 4 6 10 25 14 25 6z m-673
-12 c-3 -3 -12 -4 -19 -1 -8 3 -5 6 6 6 11 1 17 -2 13 -5z m668 -53 c27 -7 28
-8 9 -15 -23 -7 -74 11 -74 27 0 5 8 6 18 2 9 -4 31 -11 47 -14z m-2385 -13
c-21 -23 -36 -19 -27 7 4 8 16 15 27 15 l21 0 -21 -22z m2600 3 c0 -5 -7 -12
-16 -15 -14 -5 -15 -4 -4 9 14 17 20 19 20 6z m-743 -17 c-3 -3 -12 -4 -19 -1
-8 3 -5 6 6 6 11 1 17 -2 13 -5z m383 -84 c0 -5 -5 -10 -11 -10 -5 0 -7 5 -4
10 3 6 8 10 11 10 2 0 4 -4 4 -10z m347 -12 c-3 -8 -6 -5 -6 6 -1 11 2 17 5
13 3 -3 4 -12 1 -19z m-660 6 c-3 -3 -12 -4 -19 -1 -8 3 -5 6 6 6 11 1 17 -2
13 -5z m93 -14 c-14 -4 -34 -4 -44 -1 -19 4 -19 5 -1 11 10 4 30 4 44 1 l26
-5 -25 -6z m120 -39 c0 -8 -90 -3 -99 5 -2 2 19 4 47 4 29 0 52 -4 52 -9z m83
-15 c6 -14 -36 -27 -61 -18 -21 7 -13 21 16 25 15 2 30 5 33 6 4 0 9 -5 12
-13z m664 -42 c-3 -3 -12 -4 -19 -1 -8 3 -5 6 6 6 11 1 17 -2 13 -5z m250 -70
c-3 -3 -12 -4 -19 -1 -8 3 -5 6 6 6 11 1 17 -2 13 -5z m-57 -44 c0 -5 -9 -10
-20 -10 -11 0 -20 5 -20 10 0 6 9 10 20 10 11 0 20 -4 20 -10z m48 -166 c15
-4 22 -14 22 -30 0 -22 -2 -23 -20 -12 -11 7 -20 18 -20 25 0 12 -41 14 -50 2
-3 -4 -11 -1 -18 7 -11 12 -7 14 25 14 21 0 48 -3 61 -6z m106 -10 c9 -3 16
-12 16 -19 0 -19 -30 -27 -36 -10 -4 8 -17 15 -30 15 -13 0 -24 5 -24 10 0 11
49 14 74 4z m86 -24 c0 -5 -6 -10 -12 -13 -7 -2 2 -7 20 -11 17 -4 32 -12 32
-18 0 -6 6 -6 15 2 13 11 15 7 15 -23 0 -39 -9 -50 -29 -38 -10 6 -9 10 4 15
9 3 14 10 10 15 -3 6 -12 8 -20 4 -9 -3 -15 1 -16 8 0 8 -4 4 -9 -8 -9 -23
-40 -32 -40 -13 0 6 5 10 10 10 6 0 10 5 10 10 0 6 -11 10 -25 10 -22 0 -25 4
-25 33 0 32 2 33 30 29 17 -2 30 -8 30 -12z m730 10 c0 -5 -4 -10 -10 -10 -5
0 -10 5 -10 10 0 6 5 10 10 10 6 0 10 -4 10 -10z m-943 -90 c-5 -22 -3 -30 8
-30 19 0 19 -10 0 -46 l-15 -29 -1 35 c-1 22 -3 27 -6 15 -3 -11 -9 -25 -14
-30 -4 -6 -6 -25 -3 -43 6 -36 -9 -43 -26 -11 -8 14 -8 24 -1 33 6 7 8 16 4
19 -3 4 1 15 9 24 9 10 21 35 29 56 16 45 24 48 16 7z m333 21 c0 -12 -20 -25
-27 -18 -7 7 6 27 18 27 5 0 9 -4 9 -9z m-280 -21 c0 -5 -4 -10 -10 -10 -5 0
-10 5 -10 10 0 6 5 10 10 10 6 0 10 -4 10 -10z m330 0 c0 -5 -7 -10 -15 -10
-8 0 -15 5 -15 10 0 6 7 10 15 10 8 0 15 -4 15 -10z m1113 -20 c9 0 17 6 18
13 0 10 2 10 6 0 2 -7 18 -13 34 -13 16 0 29 -3 29 -7 0 -5 -28 -8 -63 -8 -43
1 -61 4 -59 13 1 7 -2 12 -8 12 -5 0 -10 5 -10 12 0 6 7 4 18 -5 10 -10 26
-17 35 -17z m-1403 6 c0 -7 -7 -19 -15 -26 -16 -13 -20 -3 -9 24 8 20 24 21
24 2z m42 -18 c-7 -7 -12 -8 -12 -2 0 14 12 26 19 19 2 -3 -1 -11 -7 -17z
m265 -48 c4 0 15 8 25 17 19 17 19 16 13 -12 -4 -17 -8 -36 -11 -42 -6 -20 5
-15 31 13 21 23 26 24 31 10 3 -9 14 -16 23 -16 14 0 14 2 1 10 -13 9 -13 12
3 24 9 7 17 18 17 25 0 6 5 11 10 11 6 0 10 -6 9 -12 -1 -7 -1 -20 0 -28 1
-13 2 -13 11 0 8 13 10 12 10 -2 0 -10 -7 -18 -16 -18 -11 0 -14 -6 -9 -22 4
-13 9 -31 12 -41 6 -24 -19 -78 -34 -73 -7 3 -10 -1 -7 -9 6 -13 -29 -39 -39
-29 -3 3 -8 0 -13 -7 -5 -8 -3 -10 7 -4 12 8 12 6 0 -8 -7 -9 -18 -17 -24 -17
-15 0 -57 49 -57 67 0 11 -4 13 -12 6 -19 -15 -72 -23 -59 -10 6 6 11 17 11
24 0 8 -8 5 -21 -8 -24 -24 -45 -20 -41 7 2 12 0 15 -5 8 -15 -21 -49 -25 -63
-9 -9 11 -15 12 -20 5 -7 -12 -40 -3 -40 11 0 5 9 9 20 9 23 0 27 15 6 23 -8
3 -21 -4 -29 -16 -12 -18 -16 -19 -29 -6 -15 13 -14 17 4 47 17 27 17 32 4 32
-10 0 -16 9 -16 23 0 18 2 19 10 7 8 -12 10 -12 10 5 0 11 10 26 21 34 20 12
21 11 16 -11 -6 -22 -5 -22 8 -4 8 11 15 23 15 28 0 4 5 8 10 8 6 0 10 -9 10
-20 0 -20 11 -26 24 -12 16 15 56 8 62 -11 5 -16 8 -17 15 -6 6 10 9 7 10 -11
1 -18 3 -20 6 -7 3 10 18 20 34 24 23 4 29 11 31 32 1 22 2 21 5 -6 2 -18 7
-33 10 -33z m-300 25 c0 -8 -7 -15 -15 -15 -12 0 -12 3 -2 15 7 8 13 15 15 15
1 0 2 -7 2 -15z m-17 -41 c0 -7 -24 -48 -38 -66 -16 -19 -42 -13 -42 8 0 8 7
17 15 20 8 4 15 14 15 24 0 12 8 18 25 18 14 0 25 -2 25 -4z m890 -24 c0 -5
-2 -10 -4 -10 -3 0 -8 5 -11 10 -3 6 -1 10 4 10 6 0 11 -4 11 -10z m-346 -44
c-3 -23 -13 -45 -20 -51 -7 -5 -14 -28 -15 -50 -1 -22 -6 -48 -11 -58 -7 -13
-5 -24 8 -38 17 -19 17 -19 -7 -15 -13 3 -30 5 -36 5 -18 1 -16 37 3 65 8 13
14 35 13 48 -3 31 11 88 22 88 5 0 9 10 9 23 0 16 6 23 21 23 18 0 19 -4 13
-40z m136 -17 c0 -17 -4 -28 -10 -24 -5 3 -10 17 -10 31 0 13 5 24 10 24 6 0
10 -14 10 -31z m43 10 c3 -12 0 -39 -8 -61 -11 -33 -11 -37 1 -27 8 6 14 20
14 29 0 62 37 68 42 8 4 -41 4 -42 15 -18 7 18 7 27 0 32 -20 13 1 21 38 14
31 -6 34 -9 25 -26 -5 -10 -10 -28 -10 -40 0 -19 4 -21 26 -16 19 5 24 4 18
-6 -4 -7 2 -5 14 5 20 18 21 18 24 -9 l3 -27 34 32 c19 17 35 30 36 29 10 -11
14 -67 6 -73 -20 -12 -12 -45 14 -55 14 -5 25 -17 25 -25 0 -11 6 -15 19 -10
12 4 21 0 26 -12 6 -17 8 -16 25 5 21 25 32 29 24 7 -4 -8 -2 -15 4 -15 12 0
24 28 14 34 -10 6 -2 96 9 96 5 0 7 -20 6 -45 -2 -39 -1 -43 12 -30 8 7 15 24
16 37 1 15 9 24 23 26 18 3 22 -2 22 -26 0 -21 6 -31 19 -35 14 -3 22 -19 29
-58 7 -40 12 -49 17 -34 3 12 15 26 25 33 17 10 19 8 18 -20 -1 -21 -7 -32
-20 -36 -10 -2 -18 -9 -18 -14 0 -5 9 -6 20 -3 12 4 27 1 35 -5 9 -8 15 -8 15
-2 0 6 -5 12 -12 14 -8 3 -8 9 0 24 11 18 12 18 18 -3 7 -26 15 -28 32 -11 8
8 15 8 27 -2 13 -11 15 -9 15 14 0 29 19 37 21 9 3 -41 4 -43 34 -43 9 0 16
14 20 38 4 20 10 48 15 62 l8 25 1 -27 c1 -28 21 -40 21 -13 0 8 6 15 13 15 8
0 7 4 -3 10 -9 6 -10 10 -3 10 17 0 34 -35 27 -54 -5 -12 -2 -15 12 -9 14 5
16 3 9 -13 -9 -22 -18 -86 -9 -66 3 6 14 12 25 12 10 0 19 5 19 11 0 6 7 17
16 26 12 13 18 13 27 3 9 -10 9 -14 -1 -17 -6 -3 -9 -9 -6 -14 3 -6 11 -5 20
2 11 9 14 8 14 -5 0 -26 1 -30 12 -43 5 -7 7 -17 3 -24 -5 -7 -15 -3 -32 15
-24 26 -43 34 -43 17 0 -6 5 -13 10 -16 14 -9 13 -26 -2 -22 -7 1 -15 -17 -19
-42 -9 -47 -14 -56 -32 -56 -7 0 -12 -10 -12 -22 0 -24 -28 -63 -45 -63 -6 0
-8 4 -5 10 3 6 -1 7 -9 4 -10 -4 -16 -1 -16 9 0 8 7 18 16 21 9 3 14 12 11 19
-3 8 4 19 14 25 22 14 23 21 9 42 -9 13 -12 13 -25 -4 -10 -14 -22 -17 -43
-13 -16 3 -33 2 -38 -3 -20 -19 -65 -19 -85 1 -16 16 -17 21 -5 25 15 6 10 44
-7 55 -12 9 -47 -1 -47 -13 0 -5 -5 -6 -11 -2 -8 4 -8 9 0 17 6 6 11 15 11 20
0 6 -11 -2 -25 -17 -13 -14 -30 -26 -36 -26 -7 0 0 14 16 30 16 17 23 30 17
30 -7 0 -12 -4 -12 -9 0 -5 -12 -16 -26 -26 -25 -16 -26 -16 -50 10 -13 14
-24 34 -25 43 0 14 -2 14 -6 2 -3 -8 -13 -23 -22 -32 -9 -9 -22 -24 -29 -33
-26 -31 -32 -14 -7 22 22 34 23 38 8 47 -30 16 -83 24 -90 13 -4 -6 -1 -7 6
-2 9 5 12 2 9 -10 -5 -27 -31 -39 -64 -30 -21 6 -24 9 -11 12 11 3 17 14 17
33 0 23 -4 28 -20 27 -13 -1 -19 -6 -15 -15 6 -16 -36 -60 -52 -55 -7 3 -10
10 -7 18 3 8 12 11 20 8 8 -3 14 0 14 6 0 14 -44 32 -48 20 -6 -16 -32 -9 -32
9 0 12 -3 13 -8 5 -6 -9 -23 -6 -69 12 -33 14 -70 26 -82 28 -13 2 -27 10 -32
18 -8 12 -10 12 -19 -1 -9 -13 -12 -13 -23 0 -19 23 -54 40 -82 40 -14 0 -25
5 -25 10 0 6 -7 10 -16 10 -23 0 -10 48 22 77 25 23 34 50 12 36 -13 -8 -38
-13 -38 -9 0 6 90 96 96 96 3 0 3 -4 0 -9 -4 -5 -3 -16 0 -25 5 -12 10 -14 19
-6 9 8 14 6 19 -5 13 -35 46 -10 46 36 0 26 16 24 23 -2z m172 -70 c11 -17 -1
-21 -15 -4 -8 9 -8 15 -2 15 6 0 14 -5 17 -11z m451 -26 c-10 -10 -19 5 -10
18 6 11 8 11 12 0 2 -7 1 -15 -2 -18z m58 -25 c-11 -17 -24 -6 -24 19 0 26 1
26 14 8 8 -11 12 -23 10 -27z m-329 -65 c-7 -19 13 -15 24 5 6 9 10 13 10 7 0
-15 -28 -62 -29 -47 0 6 -11 12 -25 12 -15 0 -25 6 -25 15 0 9 -6 12 -15 9 -8
-4 -15 -1 -15 5 0 6 5 11 11 11 5 0 16 15 24 33 7 17 17 36 22 40 9 10 26 -71
18 -90z m411 86 c3 -6 16 -8 29 -5 15 4 25 1 28 -8 4 -10 -1 -12 -16 -9 -18 4
-19 3 -7 -6 12 -8 12 -13 2 -23 -9 -9 -12 -9 -12 1 0 7 -5 9 -11 5 -6 -3 -15
0 -20 7 -8 12 -11 12 -18 -1 -14 -21 -25 -5 -17 25 7 26 29 34 42 14z m-126
-75 c0 -8 -4 -14 -9 -14 -11 0 -22 26 -14 34 9 9 23 -3 23 -20z m-72 -7 c5
-24 -15 -21 -21 4 -3 13 -1 19 6 16 7 -2 13 -11 15 -20z m112 13 c0 -5 -4 -10
-10 -10 -5 0 -10 5 -10 10 0 6 5 10 10 10 6 0 10 -4 10 -10z m300 -21 c0 -20
-15 -26 -25 -9 -9 15 3 43 15 35 5 -3 10 -15 10 -26z m-196 -12 c10 -38 7 -62
-5 -50 -6 6 -17 9 -24 7 -12 -5 -25 24 -25 57 0 25 47 12 54 -14z m-114 -18
c0 -11 5 -30 11 -42 l11 -22 -21 22 c-22 23 -29 63 -11 63 6 0 10 -9 10 -21z
m317 -41 c-14 -8 -37 9 -37 29 0 11 5 10 24 -4 15 -12 20 -20 13 -25z m53 -14
c0 -22 -2 -25 -15 -14 -8 7 -15 19 -15 26 0 8 7 14 15 14 10 0 15 -10 15 -26z
m-530 -156 c0 -4 -5 -10 -11 -13 -6 -4 -8 -13 -5 -21 3 -7 1 -16 -4 -19 -9 -6
-41 51 -32 59 7 8 52 3 52 -6z m499 -13 c-3 -22 1 -35 11 -35 6 0 10 9 10 20
0 11 4 20 9 20 10 0 9 -12 -3 -47 -4 -13 -12 -23 -17 -23 -5 0 -9 -6 -8 -12 1
-7 -1 -21 -6 -31 -6 -14 -10 -15 -22 -6 -12 10 -10 15 8 35 12 13 19 30 16 38
-8 19 -27 21 -27 4 0 -10 -3 -9 -9 1 -13 20 -2 47 20 47 10 0 18 -5 18 -11z
m-404 -11 c21 14 23 14 28 -4 7 -27 -7 -33 -58 -25 -46 6 -61 17 -50 36 5 7
15 5 32 -6 22 -15 27 -15 48 -1z m-201 -23 c4 -5 -3 -7 -14 -4 -23 6 -26 13
-6 13 8 0 17 -4 20 -9z m558 -38 c-6 -3 -10 -9 -6 -14 3 -5 0 -9 -5 -9 -6 0
-11 4 -11 8 0 12 23 32 29 25 3 -3 0 -8 -7 -10z m-127 -3 c3 -5 -1 -10 -10
-10 -9 0 -13 5 -10 10 3 6 8 10 10 10 2 0 7 -4 10 -10z"/>
<path d="M3890 1593 c0 -4 5 -15 10 -23 8 -13 10 -13 10 2 0 9 -4 20 -10 23
-5 3 -10 3 -10 -2z"/>
<path d="M3871 1574 c0 -11 3 -14 6 -6 3 7 2 16 -1 19 -3 4 -6 -2 -5 -13z"/>
<path d="M3660 1558 c0 -6 -7 -20 -17 -30 -9 -10 -11 -18 -6 -18 6 0 15 6 20
13 16 20 23 47 13 47 -6 0 -10 -5 -10 -12z"/>
<path d="M3766 1535 c4 -8 1 -21 -5 -28 -8 -10 -7 -14 4 -14 8 0 15 5 15 11 0
6 7 3 14 -7 12 -16 14 -14 18 19 3 29 2 33 -7 20 -15 -20 -25 -20 -25 -1 0 8
-4 15 -10 15 -5 0 -7 -7 -4 -15z"/>
<path d="M3726 1523 c-6 -14 -5 -15 5 -6 7 7 10 15 7 18 -3 3 -9 -2 -12 -12z"/>
<path d="M3940 1475 c-14 -17 -7 -45 12 -45 21 0 43 18 34 27 -5 4 -11 2 -13
-4 -9 -24 -25 -13 -19 12 7 29 4 31 -14 10z"/>
<path d="M4208 1424 c-10 -18 -13 -36 -8 -39 8 -5 36 63 28 70 -1 1 -11 -12
-20 -31z"/>
<path d="M4330 1405 c-7 -9 -11 -18 -8 -20 7 -8 38 5 38 15 0 17 -18 19 -30 5z"/>
<path d="M4415 1400 c3 -5 8 -10 11 -10 2 0 4 5 4 10 0 6 -5 10 -11 10 -5 0
-7 -4 -4 -10z"/>
<path d="M4439 1379 c-9 -17 -8 -23 2 -30 22 -14 29 -10 29 15 0 34 -16 41
-31 15z"/>
<path d="M4252 1356 c-20 -34 -20 -34 -1 -39 16 -4 19 -1 14 13 -4 12 2 26 16
39 18 17 19 21 7 21 -9 0 -25 -15 -36 -34z"/>
<path d="M4390 1374 c0 -8 5 -12 10 -9 6 4 8 11 5 16 -9 14 -15 11 -15 -7z"/>
<path d="M4332 1339 c-7 -12 -11 -23 -9 -26 8 -7 47 21 47 34 0 20 -24 15 -38
-8z"/>
<path d="M4800 1331 c0 -6 5 -13 10 -16 6 -3 10 1 10 9 0 9 -4 16 -10 16 -5 0
-10 -4 -10 -9z"/>
<path d="M4420 1310 c0 -5 5 -10 10 -10 6 0 10 5 10 10 0 6 -4 10 -10 10 -5 0
-10 -4 -10 -10z"/>
<path d="M4826 1286 c5 -13 44 -30 44 -19 0 7 -33 32 -42 33 -4 0 -5 -6 -2
-14z"/>
<path d="M4400 1273 c0 -4 5 -15 10 -23 8 -13 10 -13 10 2 0 9 -4 20 -10 23
-5 3 -10 3 -10 -2z"/>
<path d="M4510 1270 c-12 -8 -10 -10 8 -10 13 0 20 4 17 10 -7 12 -6 12 -25 0z"/>
<path d="M5183 1209 c23 -13 22 -28 -2 -22 -17 4 -20 0 -19 -26 1 -20 6 -31
15 -31 8 0 11 5 8 10 -3 6 3 22 14 36 24 30 20 44 -12 44 -20 -1 -20 -2 -4
-11z"/>
<path d="M5230 1108 c0 -12 1 -19 3 -17 1 2 9 12 16 22 12 14 11 17 -3 17 -10
0 -16 -8 -16 -22z"/>
<path d="M1028 2603 c7 -3 16 -2 19 1 4 3 -2 6 -13 5 -11 0 -14 -3 -6 -6z"/>
<path d="M750 2480 c0 -5 12 -10 28 -9 24 0 25 1 7 9 -27 12 -35 12 -35 0z"/>
<path d="M1180 2480 c0 -5 5 -10 10 -10 6 0 10 5 10 10 0 6 -4 10 -10 10 -5 0
-10 -4 -10 -10z"/>
<path d="M1228 2478 c9 -9 15 -9 24 0 9 9 7 12 -12 12 -19 0 -21 -3 -12 -12z"/>
<path d="M1330 2480 c19 -13 30 -13 30 0 0 6 -10 10 -22 10 -19 0 -20 -2 -8
-10z"/>
<path d="M380 2423 c-13 -15 -12 -16 4 -10 17 7 73 -17 87 -37 6 -7 139 -27
147 -21 8 6 -12 35 -24 35 -8 0 -14 7 -14 15 0 20 -46 20 -57 0 -12 -21 -70
-9 -84 16 -12 23 -39 24 -59 2z"/>
<path d="M663 2390 c-33 -13 -28 -20 12 -20 24 0 35 5 35 15 0 17 -14 18 -47
5z"/>
<path d="M980 2360 c0 -5 5 -10 10 -10 6 0 10 5 10 10 0 6 -4 10 -10 10 -5 0
-10 -4 -10 -10z"/>
<path d="M760 2330 c-12 -8 -10 -10 8 -10 13 0 20 4 17 10 -7 12 -6 12 -25 0z"/>
<path d="M1140 2290 c0 -13 50 -13 70 0 11 7 4 10 -27 10 -24 0 -43 -4 -43
-10z"/>
<path d="M1240 2292 c0 -6 15 -13 33 -16 147 -22 188 -27 196 -22 5 3 25 -1
45 -9 41 -17 86 -20 86 -5 0 6 -3 9 -7 8 -5 -1 -24 3 -43 9 -19 6 -64 14 -100
17 -36 4 -76 8 -90 10 -14 2 -46 7 -72 11 -33 5 -48 4 -48 -3z"/>
<path d="M0 2270 c0 -5 5 -10 11 -10 5 0 7 5 4 10 -3 6 -8 10 -11 10 -2 0 -4
-4 -4 -10z"/>
<path d="M78 2268 c6 -6 18 -8 28 -6 14 3 12 5 -9 10 -19 3 -25 2 -19 -4z"/>
<path d="M510 2270 c-24 -8 -23 -8 8 -9 20 -1 31 3 27 9 -3 6 -7 10 -8 9 -1
-1 -13 -5 -27 -9z"/>
<path d="M570 2271 c0 -6 15 -12 33 -13 17 0 43 -2 57 -3 14 -1 95 -5 180 -9
342 -14 565 -34 638 -55 18 -6 40 -7 49 -4 10 4 14 2 10 -4 -3 -5 32 -21 83
-38 50 -15 90 -32 90 -38 0 -6 3 -8 6 -4 3 3 16 -3 27 -14 12 -11 27 -17 35
-14 7 2 15 -2 18 -10 6 -16 59 -45 81 -45 7 0 13 -4 13 -9 0 -5 7 -12 16 -15
10 -4 13 -2 8 7 -4 6 4 3 17 -9 27 -24 24 -22 272 -145 98 -49 189 -92 203
-95 28 -7 28 -14 9 -69 -8 -22 -12 -50 -9 -62 4 -14 2 -23 -5 -23 -6 0 -11 -7
-11 -15 0 -8 7 -15 15 -15 17 0 18 -16 6 -75 l-9 -40 -1 38 c0 21 -8 52 -18
70 -14 29 -17 30 -23 12 -7 -19 -7 -18 -20 4 -6 13 -15 19 -19 14 -10 -16 -79
-3 -84 16 -3 10 -5 7 -6 -8 -1 -23 -2 -23 -20 -7 -13 12 -21 14 -26 6 -3 -6
-12 -10 -18 -9 -26 3 -37 -2 -37 -16 0 -18 -39 -15 -90 8 -38 17 -61 8 -42
-16 9 -11 6 -13 -21 -9 -17 2 -38 9 -44 14 -9 7 -18 7 -27 -1 -11 -9 -15 -8
-20 4 -4 12 -15 15 -37 11 -25 -4 -32 -1 -36 15 -3 11 -11 18 -18 15 -7 -2
-18 1 -24 7 -8 8 -11 7 -11 -4 -1 -10 -5 -9 -15 5 -15 20 -15 20 -30 0 -12
-15 -16 -16 -24 -5 -7 11 -9 11 -14 0 -4 -10 -6 -9 -6 4 -1 21 -19 23 -27 2
-7 -17 -24 -20 -24 -4 0 6 -6 17 -14 25 -12 12 -16 10 -24 -14 l-9 -27 -7 28
c-6 24 -9 27 -21 17 -8 -7 -15 -24 -15 -39 0 -18 -3 -22 -9 -12 -5 8 -16 11
-30 6 -39 -12 -82 4 -97 38 -14 32 -14 32 -6 -13 10 -63 5 -440 -7 -505 -13
-69 -67 -189 -153 -336 -74 -128 -176 -279 -190 -279 -4 0 -8 -5 -8 -10 0 -9
-18 -36 -102 -155 -16 -22 -36 -51 -45 -65 -10 -14 -39 -49 -65 -78 -26 -30
-48 -59 -48 -66 0 -23 -38 -43 -93 -49 -31 -3 -57 -4 -57 -2 0 22 36 75 118
173 54 64 109 133 122 152 13 19 74 99 135 178 126 164 207 284 250 371 27 56
33 61 63 61 17 0 32 5 32 11 0 7 -10 9 -25 7 -29 -6 -29 -7 -10 56 8 27 15 68
15 90 0 23 6 75 14 116 8 42 13 127 13 195 -2 106 -5 128 -31 193 -30 79 -46
96 -19 22 24 -67 24 -291 -1 -395 -27 -115 -57 -218 -67 -230 -5 -5 -9 -21 -9
-36 0 -26 -2 -27 -35 -22 -23 4 -35 2 -35 -6 0 -6 11 -11 25 -11 14 0 25 -2
25 -4 0 -6 -119 -205 -143 -240 -30 -41 -226 -287 -246 -307 -9 -9 -41 -45
-71 -80 -30 -35 -78 -89 -106 -119 -84 -91 -125 -137 -138 -156 -11 -14 -29
-19 -81 -20 l-68 -3 29 31 c16 17 63 65 104 107 163 166 409 444 488 551 53
72 162 240 162 249 0 5 16 42 35 82 19 41 44 108 54 149 11 41 27 100 36 130
19 65 17 302 -4 323 -9 9 -10 4 -5 -22 5 -24 4 -32 -4 -27 -7 4 -14 -3 -18
-19 -3 -14 -11 -25 -16 -25 -6 0 -8 7 -4 15 3 9 0 15 -9 15 -9 0 -15 10 -15
25 0 27 -8 29 -59 19 -21 -5 -31 -12 -31 -25 0 -11 -4 -19 -10 -19 -5 0 -10 8
-10 18 0 27 -7 31 -43 23 -56 -12 -95 9 -46 24 18 6 19 9 8 21 -9 8 -24 11
-39 7 -22 -6 -23 -7 -4 -15 14 -6 11 -7 -12 -4 -34 5 -54 -8 -54 -36 0 -10 -4
-18 -10 -18 -13 0 -13 6 1 31 7 14 7 24 0 33 -15 18 -3 26 40 26 47 0 57 13
21 30 l-27 13 35 8 c43 10 136 9 119 -2 -8 -4 -1 -12 19 -23 17 -9 35 -24 41
-33 5 -10 13 -14 17 -10 5 4 2 17 -5 29 -18 29 6 54 40 42 13 -4 28 -7 33 -5
5 1 13 -4 18 -11 5 -7 8 -8 5 -3 -21 52 -33 75 -39 75 -4 0 -8 7 -8 15 0 18
-50 75 -102 116 -34 27 -42 30 -64 21 -13 -7 -24 -19 -24 -27 0 -10 -5 -13
-12 -9 -7 4 -31 7 -55 5 -24 -1 -43 2 -43 7 0 5 -12 9 -27 10 -16 0 -41 3 -58
6 -16 3 -49 9 -72 12 -45 6 -59 23 -20 25 20 1 19 2 -8 14 -17 8 -43 12 -60 8
l-30 -5 19 21 20 22 -44 -7 c-38 -6 -43 -5 -37 10 4 9 3 14 -2 11 -6 -3 -14 2
-18 10 -6 10 -24 16 -49 16 -59 1 -121 19 -104 29 24 15 2 24 -24 11 -13 -8
-29 -10 -35 -6 -21 13 0 25 47 26 l47 2 -60 8 c-33 4 -75 5 -94 2 -19 -3 -31
-2 -28 3 3 5 -27 10 -66 11 -40 1 -89 7 -109 14 -43 14 -68 7 -68 -20 0 -23
13 -29 52 -23 20 3 27 9 24 18 -4 11 -2 11 14 1 11 -6 16 -13 10 -15 -5 -2
-10 -15 -10 -28 0 -16 -6 -24 -17 -24 -15 0 -16 -2 -3 -10 11 -7 4 -11 -28
-16 l-42 -7 0 -234 0 -234 68 47 c130 90 199 153 222 200 11 25 18 54 15 64
-10 30 -74 81 -142 112 -35 15 -63 33 -63 38 0 6 2 10 4 10 13 0 147 -65 178
-86 75 -52 75 -126 1 -205 -48 -52 -213 -180 -257 -200 l-26 -12 0 -809 0
-808 138 0 c88 0 142 4 149 11 10 10 153 40 153 31 0 -2 -5 -12 -10 -23 -10
-18 -7 -19 54 -19 56 0 66 3 71 20 3 11 12 21 18 22 22 2 32 5 50 13 10 4 32
5 49 1 18 -4 37 -1 47 6 9 7 7 1 -5 -12 -12 -14 -24 -31 -28 -37 -6 -10 468
-13 2353 -13 l2361 0 0 114 c0 79 -4 117 -12 124 -22 17 -319 197 -623 377
-82 49 -151 93 -153 97 -2 4 -11 8 -21 8 -9 0 -21 4 -27 10 -10 10 -52 33
-354 197 -230 125 -617 314 -837 410 -10 4 -13 -9 -13 -45 l0 -51 -28 10 c-28
10 -40 49 -15 49 7 0 13 5 13 10 0 6 -11 10 -25 10 -14 0 -25 -4 -25 -10 0 -5
-9 -10 -20 -10 -10 0 -23 -6 -27 -14 -6 -10 -52 -15 -188 -19 -99 -4 -236 -9
-305 -11 -73 -3 -108 -2 -83 3 55 10 66 21 22 22 l-34 1 33 14 c18 8 37 12 43
9 11 -7 12 15 1 32 -9 15 -61 35 -72 28 -4 -3 -18 -1 -30 3 -19 7 -11 13 54
36 42 16 76 30 76 33 0 3 -18 3 -41 0 -38 -5 -40 -4 -25 12 9 10 36 27 61 40
25 12 45 24 45 27 0 15 -45 -3 -105 -42 -55 -35 -76 -44 -99 -40 -25 5 -28 3
-23 -14 3 -11 1 -23 -4 -26 -12 -7 -12 178 1 211 5 14 18 29 27 32 25 10 43
29 43 47 0 25 -22 66 -37 66 -7 0 -13 9 -13 19 0 11 -5 21 -11 23 -6 2 -11 20
-12 40 -1 47 -22 56 -44 20 -10 -15 -23 -33 -30 -40 -7 -7 -17 -21 -22 -30 -5
-9 -12 -14 -16 -11 -3 4 1 14 10 22 18 18 29 93 16 102 -5 3 -13 -15 -16 -40
-8 -50 -14 -53 -55 -29 -20 12 -26 22 -22 38 5 20 4 20 -14 5 -20 -18 -32 -18
-78 0 -22 9 -27 16 -23 33 5 19 4 20 -9 6 -14 -13 -20 -13 -60 5 -37 17 -43
24 -38 41 6 18 5 19 -8 8 -18 -14 -68 -1 -68 18 0 6 -5 8 -11 5 -13 -8 -69 14
-69 27 0 5 -6 8 -12 5 -7 -2 -69 24 -138 59 -152 76 -193 94 -213 94 -9 0 -18
4 -21 9 -3 5 -22 12 -41 15 -19 4 -35 10 -35 14 0 4 -36 8 -81 9 -44 1 -86 6
-92 11 -7 4 -23 7 -37 6 -14 -1 -45 2 -70 7 -25 5 -99 10 -165 10 -66 1 -124
4 -130 7 -5 4 -46 8 -90 9 -44 1 -82 3 -85 4 -3 1 -9 0 -15 -1 -20 -4 -176 1
-190 6 -8 4 -15 1 -15 -5z m-430 -117 c0 -8 -5 -12 -10 -9 -6 4 -8 11 -5 16 9
14 15 11 15 -7z m440 -114 c0 -5 -4 -10 -10 -10 -5 0 -10 5 -10 10 0 6 5 10
10 10 6 0 10 -4 10 -10z m40 -15 c0 -8 -4 -15 -10 -15 -5 0 -10 7 -10 15 0 8
5 15 10 15 6 0 10 -7 10 -15z m1635 -177 c14 -6 25 -15 25 -19 0 -4 -13 -1
-30 7 -45 23 -41 33 5 12z m-1061 -24 c9 -22 8 -24 -9 -18 -8 4 -15 12 -15 20
0 19 16 18 24 -2z m1206 -44 c0 -5 -7 -7 -15 -4 -8 4 -15 8 -15 10 0 2 7 4 15
4 8 0 15 -4 15 -10z m-1676 -58 c-4 -33 -1 -41 18 -51 16 -8 17 -9 3 -5 -11 4
-42 9 -68 12 -38 3 -47 7 -43 19 3 8 6 17 6 19 0 2 13 4 30 4 19 0 34 7 42 20
7 11 14 20 15 20 1 0 0 -17 -3 -38z m139 -9 c-7 -2 -19 -2 -25 0 -7 3 -2 5 12
5 14 0 19 -2 13 -5z m-683 -47 c0 -2 -7 -7 -16 -10 -8 -3 -12 -2 -9 4 6 10 25
14 25 6z m660 -6 c18 -12 2 -12 -25 0 -13 6 -15 9 -5 9 8 0 22 -4 30 -9z m293
-27 c-3 -7 -8 -13 -12 -13 -16 0 -19 13 -8 31 12 20 29 6 20 -18z m-86 11 c-3
-3 -12 -4 -19 -1 -8 3 -5 6 6 6 11 1 17 -2 13 -5z m200 -36 c-3 -7 -5 -2 -5
12 0 14 2 19 5 13 2 -7 2 -19 0 -25z m170 -40 c-3 -7 -5 -2 -5 12 0 14 2 19 5
13 2 -7 2 -19 0 -25z m1157 -284 c3 -8 2 -12 -4 -9 -6 3 -10 10 -10 16 0 14 7
11 14 -7z m786 -410 c0 -11 -6 -14 -22 -9 -39 12 -44 25 -10 25 22 0 32 -5 32
-16z m48 -16 c19 -19 14 -30 -8 -18 -11 6 -20 15 -20 20 0 14 14 12 28 -2z"/>
<path d="M1710 2250 c0 -5 5 -10 11 -10 5 0 7 5 4 10 -3 6 -8 10 -11 10 -2 0
-4 -4 -4 -10z"/>
<path d="M1743 2250 c2 -8 14 -16 28 -17 19 -1 20 -1 4 4 -11 3 -24 10 -28 17
-6 7 -7 6 -4 -4z"/>
<path d="M343 2243 c9 -2 23 -2 30 0 6 3 -1 5 -18 5 -16 0 -22 -2 -12 -5z"/>
<path d="M495 2224 c55 -8 109 -13 120 -10 11 2 2 4 -20 5 -22 1 -35 5 -29 9
7 4 -29 8 -80 8 l-91 1 100 -13z"/>
<path d="M2044 2231 c5 -8 56 -3 56 5 0 2 -14 4 -31 4 -16 0 -28 -4 -25 -9z"/>
<path d="M1690 2220 c0 -5 5 -10 11 -10 5 0 7 5 4 10 -3 6 -8 10 -11 10 -2 0
-4 -4 -4 -10z"/>
<path d="M2123 2223 c9 -2 23 -2 30 0 6 3 -1 5 -18 5 -16 0 -22 -2 -12 -5z"/>
<path d="M721 2200 c-8 -4 -1 -10 20 -14 40 -8 47 -3 16 11 -13 6 -29 8 -36 3z"/>
<path d="M1765 2181 c33 -20 99 -36 90 -22 -3 5 -19 12 -35 16 -16 4 -32 11
-35 16 -4 5 -16 9 -28 9 -20 0 -19 -2 8 -19z"/>
<path d="M857 2160 c39 -10 99 -33 133 -49 71 -36 71 -36 64 -17 -8 20 12 28
26 11 10 -12 14 -12 26 0 8 7 14 16 14 18 0 11 -45 15 -62 6 -12 -6 -18 -6
-18 1 0 5 -15 10 -32 10 -18 0 -62 9 -96 20 -35 11 -78 20 -95 19 -23 0 -11
-6 40 -19z"/>
<path d="M628 2163 c6 -2 18 -2 25 0 6 3 1 5 -13 5 -14 0 -19 -2 -12 -5z"/>
<path d="M698 2153 c7 -3 16 -2 19 1 4 3 -2 6 -13 5 -11 0 -14 -3 -6 -6z"/>
<path d="M1880 2150 c0 -5 5 -10 11 -10 5 0 7 5 4 10 -3 6 -8 10 -11 10 -2 0
-4 -4 -4 -10z"/>
<path d="M0 2140 c0 -5 5 -10 10 -10 6 0 10 5 10 10 0 6 -4 10 -10 10 -5 0
-10 -4 -10 -10z"/>
<path d="M881 2107 c28 -21 59 -36 59 -29 0 5 -11 14 -25 20 -24 11 -44 16
-34 9z"/>
<path d="M2016 2083 c3 -11 15 -18 30 -18 31 0 31 13 -2 25 -33 13 -33 13 -28
-7z"/>
<path d="M1096 2043 c16 -16 50 -46 75 -68 25 -22 61 -60 80 -85 19 -25 36
-47 39 -50 3 -3 15 -25 27 -50 15 -30 23 -39 24 -25 0 11 2 34 4 50 2 17 1 22
-2 13 -5 -19 -23 -25 -23 -7 0 6 6 17 14 25 12 12 16 9 25 -16 15 -44 45 -35
46 15 0 26 31 22 65 -10 25 -23 50 -24 50 -1 0 7 17 19 37 27 l37 14 -35 6
c-27 4 -19 7 42 13 49 5 84 4 95 -2 19 -11 18 -11 -76 -25 -14 -3 12 -5 58 -6
47 0 82 -5 82 -11 0 -5 9 -10 20 -10 27 0 25 20 -2 28 -23 6 -23 6 2 12 24 6
23 7 -12 18 -21 5 -45 18 -54 27 -9 9 -23 14 -30 11 -7 -3 -17 2 -22 11 -13
22 -143 27 -135 5 5 -11 0 -11 -26 3 -18 9 -57 17 -87 18 -30 1 -54 6 -54 12
0 5 -5 4 -11 -2 -7 -7 -28 -1 -70 21 -48 25 -56 32 -42 39 13 5 11 6 -6 3 -14
-3 -31 0 -37 5 -7 6 -23 8 -35 4 -15 -5 -18 -9 -9 -15 8 -5 8 -10 2 -14 -14
-9 -42 4 -42 19 0 7 -7 16 -16 19 -28 11 -28 7 2 -21z m79 -23 c-10 -11 -20
-18 -23 -15 -7 6 18 35 31 35 5 0 2 -9 -8 -20z m195 -155 c0 -8 -2 -15 -4 -15
-2 0 -6 7 -10 15 -3 8 -1 15 4 15 6 0 10 -7 10 -15z"/>
<path d="M987 2044 c6 -15 23 -19 23 -5 0 5 -7 11 -14 14 -10 4 -13 1 -9 -9z"/>
<path d="M2105 2040 c4 -6 11 -7 17 -4 6 4 14 0 19 -7 7 -11 9 -10 9 4 0 12
-8 17 -26 17 -14 0 -23 -4 -19 -10z"/>
<path d="M2220 2010 c0 -19 20 -27 33 -13 8 7 -11 33 -24 33 -5 0 -9 -9 -9
-20z"/>
<path d="M2280 2000 c0 -5 5 -10 11 -10 5 0 7 5 4 10 -3 6 -8 10 -11 10 -2 0
-4 -4 -4 -10z"/>
<path d="M2314 1987 c3 -10 6 -23 6 -28 0 -5 5 -9 10 -9 14 0 12 13 -6 36 -14
17 -15 17 -10 1z"/>
<path d="M2408 1938 l4 -29 14 27 c18 33 18 33 -4 31 -14 -1 -17 -7 -14 -29z"/>
<path d="M1187 1920 c21 -34 53 -72 53 -63 0 5 -14 24 -31 43 -17 19 -27 28
-22 20z"/>
<path d="M3857 1916 c-6 -15 1 -26 15 -26 11 0 10 27 -1 34 -5 3 -11 0 -14 -8z"/>
<path d="M3810 1910 c0 -5 5 -10 11 -10 5 0 7 5 4 10 -3 6 -8 10 -11 10 -2 0
-4 -4 -4 -10z"/>
<path d="M1910 1900 c0 -5 5 -10 11 -10 5 0 7 5 4 10 -3 6 -8 10 -11 10 -2 0
-4 -4 -4 -10z"/>
<path d="M2000 1906 c0 -3 9 -10 20 -16 11 -6 20 -8 20 -6 0 3 -9 10 -20 16
-11 6 -20 8 -20 6z"/>
<path d="M1948 1883 c7 -3 16 -2 19 1 4 3 -2 6 -13 5 -11 0 -14 -3 -6 -6z"/>
<path d="M3698 1883 c6 -2 18 -2 25 0 6 3 1 5 -13 5 -14 0 -19 -2 -12 -5z"/>
<path d="M4000 1861 c0 -11 31 -24 39 -16 3 3 -1 10 -9 15 -19 12 -30 12 -30
1z"/>
<path d="M2117 1839 c7 -7 15 -10 18 -7 3 3 -2 9 -12 12 -14 6 -15 5 -6 -5z"/>
<path d="M3191 1783 c-14 -71 -14 -73 4 -73 29 0 66 -24 87 -58 23 -38 43 -27
27 16 -5 13 -6 29 -2 35 4 6 1 8 -9 5 -8 -4 -15 0 -15 8 0 7 4 11 9 8 15 -10
8 3 -17 30 -14 15 -25 36 -25 47 0 11 -4 18 -9 15 -5 -3 -11 1 -15 9 -11 29
-23 14 -35 -42z"/>
<path d="M1618 1823 c12 -2 32 -2 45 0 12 2 2 4 -23 4 -25 0 -35 -2 -22 -4z"/>
<path d="M4088 1823 c7 -3 16 -2 19 1 4 3 -2 6 -13 5 -11 0 -14 -3 -6 -6z"/>
<path d="M1025 1778 c-4 -10 -4 -26 0 -35 8 -17 8 -17 12 0 3 9 3 25 0 35 -4
16 -4 16 -12 0z"/>
<path d="M1231 1754 c0 -11 3 -14 6 -6 3 7 2 16 -1 19 -3 4 -6 -2 -5 -13z"/>
<path d="M4137 1762 c6 -4 13 -20 15 -36 2 -23 8 -29 31 -32 21 -2 27 2 27 17
0 11 7 22 15 25 27 11 -15 33 -60 34 -22 0 -35 -4 -28 -8z"/>
<path d="M4068 1748 c9 -9 15 -9 24 0 9 9 7 12 -12 12 -19 0 -21 -3 -12 -12z"/>
<path d="M1025 1710 c3 -5 10 -10 16 -10 5 0 9 5 9 10 0 6 -7 10 -16 10 -8 0
-12 -4 -9 -10z"/>
<path d="M1360 1700 c6 -11 13 -20 16 -20 2 0 0 9 -6 20 -6 11 -13 20 -16 20
-2 0 0 -9 6 -20z"/>
<path d="M4051 1694 c0 -11 3 -14 6 -6 3 7 2 16 -1 19 -3 4 -6 -2 -5 -13z"/>
<path d="M4110 1700 c-8 -5 -12 -12 -9 -15 8 -8 39 5 39 16 0 11 -11 11 -30
-1z"/>
<path d="M2678 1658 c-27 -11 -48 -27 -48 -34 0 -20 15 -17 47 9 15 13 37 29
48 35 33 19 3 13 -47 -10z"/>
<path d="M3396 1661 c-4 -7 -5 -15 -2 -18 9 -9 19 4 14 18 -4 11 -6 11 -12 0z"/>
<path d="M4598 1643 c7 -3 16 -2 19 1 4 3 -2 6 -13 5 -11 0 -14 -3 -6 -6z"/>
<path d="M1483 1633 c9 -2 23 -2 30 0 6 3 -1 5 -18 5 -16 0 -22 -2 -12 -5z"/>
<path d="M1872 1628 c6 -18 28 -21 28 -4 0 9 -7 16 -16 16 -9 0 -14 -5 -12
-12z"/>
<path d="M2080 1630 c0 -5 9 -10 19 -10 11 0 23 5 26 10 4 6 -5 10 -19 10 -14
0 -26 -4 -26 -10z"/>
<path d="M2200 1629 c0 -5 5 -7 10 -4 6 3 10 8 10 11 0 2 -4 4 -10 4 -5 0 -10
-5 -10 -11z"/>
<path d="M4780 1504 c0 -8 5 -12 10 -9 6 3 10 10 10 16 0 5 -4 9 -10 9 -5 0
-10 -7 -10 -16z"/>
</g>
</svg>
